<svg xmlns="http://www.w3.org/2000/svg" version="1.1" xmlns:xlink="http://www.w3.org/1999/xlink" xmlns:svgjs="http://svgjs.dev/svgjs" width="1000" height="1000" viewBox="0 0 1000 1000"><rect width="1000" height="1000" fill="#000000"></rect><g transform="matrix(0.46204620462046203,0,0,0.46204620462046203,269.0906311657484,150.28340080971657)"><svg viewBox="0 0 163 247" data-background-color="#ffffff" preserveAspectRatio="xMidYMid meet" height="1515" width="1000" xmlns="http://www.w3.org/2000/svg" xmlns:xlink="http://www.w3.org/1999/xlink"><defs></defs><g id="tight-bounds" transform="matrix(1,0,0,1,-0.04012273317962922,-0.09999999999999432)"><svg viewBox="0 0 163.08024546635926 247.2" height="247.2" width="163.08024546635926"><g><svg viewBox="0 0 397.4975999999999 602.5340864492975" height="247.2" width="163.08024546635926"><g><rect width="397.4975999999999" height="12.700244373465095" x="0" y="295.4765854668504" fill="#ffffff" opacity="1" stroke-width="0" stroke="transparent" fill-opacity="1" class="rect-o-0" data-fill-palette-color="secondary" rx="1%" id="o-0" data-palette-color="#0080ff"></rect></g><g transform="matrix(1,0,0,1,0.9887999999999693,341.4235428598576)"><svg viewBox="0 0 395.52 261.1105435894399" height="261.1105435894399" width="395.52"><g><svg viewBox="0 0 395.52 261.1105435894399" height="261.1105435894399" width="395.52"><g><svg viewBox="0 0 395.52 140.83055041402827" height="140.83055041402827" width="395.52"><g transform="matrix(1,0,0,1,0,0)"><svg width="395.52" viewBox="-10.300000190734863 -34.599998474121094 102.63999938964844 36.54999923706055" height="140.83055041402827" data-palette-color="#010c80"><path d="M23.5-34.4L23.5-34.4Q39.5-34.4 40.2-34.5 40.9-34.6 41.38-34.6 41.85-34.6 41.85-34.4 41.85-34.2 41.33-33.77 40.8-33.35 39.53-32.93 38.25-32.5 36.65-32.5L36.65-32.5 21.9-32.55Q15.45-32.45 9.58-30.8 3.7-29.15-0.05-26.85-3.8-24.55-6-22.15-8.2-19.75-8.2-18.05L-8.2-18.05Q-8.2-16-5.15-16-2.1-16 2.78-18.63 7.65-21.25 11.05-24.9L11.05-24.9Q11.6-25.45 11.8-25.45L11.8-25.45Q11.9-25.45 11.9-25.3 11.9-25.15 11.85-25.05L11.85-25.05Q10.4-21.65 5-17.88-0.4-14.1-5.35-14.1-10.3-14.1-10.3-16.95L-10.3-16.95Q-10.3-19.1-7.5-22.05-4.7-25-0.25-27.78 4.2-30.55 10.63-32.48 17.05-34.4 23.5-34.4ZM21-30.95L21.25-30.75Q21.25-30.6 17.75-24.1L17.75-24.1Q8.2-6.35 4.65 0.4L4.65 0.4Q4.35 1.05 3.55 1.4 2.75 1.75 2.33 1.75 1.9 1.75 1.9 1.53 1.9 1.3 6.15-6.5 10.4-14.3 14.63-22.03 18.85-29.75 18.75-29.8L18.75-29.8Q19.05-30.3 19.75-30.55L19.75-30.55 21-30.95ZM24.25-3.5L24.25-3.5Q22.7-2.55 20.65-2.55L20.65-2.55 20.05-2.55Q18.7-1 17.17-0.03 15.65 0.95 14.55 0.95L14.55 0.95Q13 0.95 13-1.05 13-3.05 15.15-5.7L15.15-5.7Q14.95-6.25 14.95-7.05L14.95-7.05Q14.95-8.8 16.47-10.08 18-11.35 19.45-11.35L19.45-11.35Q22.5-11.35 22.5-8.05L22.5-8.05Q22.5-5.85 20.6-3.25L20.6-3.25 21.2-3.25Q22.8-3.25 23.95-4L23.95-4Q24.1-4.15 24.35-4.15 24.6-4.15 24.6-3.98 24.6-3.8 24.25-3.5ZM19.45-9.25L19.45-9.25Q19.7-9.35 19.85-9.35 20-9.35 20-9.13 20-8.9 19.45-8.5L19.45-8.5Q17.45-6.95 16.45-5.7L16.45-5.7Q17.55-3.95 19.8-3.4L19.8-3.4Q21.75-5.7 21.75-7.7L21.75-7.7Q21.75-8.85 21-9.45 20.25-10.05 19.07-10.05 17.9-10.05 16.9-9.38 15.9-8.7 15.9-7.93 15.9-7.15 16.05-6.7L16.05-6.7Q17.6-8.3 19.45-9.25ZM15.75-4.6L15.75-4.6Q14.95-3.25 14.95-1.6L14.95-1.6Q14.95-0.7 15.75-0.7L15.75-0.7Q17.1-0.7 19.1-2.7L19.1-2.7Q16.85-3.1 15.75-4.6ZM29.85-0.5L29.85-0.5Q29.85-1.05 30.67-2.35 31.5-3.65 31.77-4 32.05-4.35 32.59-5.1L32.59-5.1Q26.65 0.3 24.4 0.3L24.4 0.3Q23.15 0.3 23.15-0.75L23.15-0.75Q23.15-2.25 28.2-9.2L28.2-9.2Q28.45-9.6 28.85-9.6L28.85-9.6Q30-9.25 30-9.1 30-8.95 29.7-8.5L29.7-8.5Q25.4-2.7 25.4-1.98 25.4-1.25 25.9-1.25L25.9-1.25Q27.3-1.25 30.87-4.48 34.45-7.7 36.05-9.8L36.05-9.8Q36.25-10.15 36.7-10.15L36.7-10.15Q37.7-9.95 37.7-9.75L37.7-9.75Q37.15-8.95 36.2-7.65 35.25-6.35 34.65-5.53 34.05-4.7 33.4-3.75L33.4-3.75Q32.15-2.05 31.9-1.25L31.9-1.25Q31.9-0.75 32.72-0.75 33.55-0.75 35.65-1.73 37.75-2.7 39.34-3.7L39.34-3.7 40.95-4.7Q41-4.6 41-4.3 41-4 40.55-3.8L40.55-3.8Q33.8 0.8 31.15 0.8L31.15 0.8Q29.85 0.8 29.85-0.5ZM39.84-3.35L39.84-3.35Q39.64-3.25 39.47-3.25 39.29-3.25 39.29-3.45 39.29-3.65 39.44-3.8L39.44-3.8Q41.49-4.95 43.94-7.55L43.94-7.55Q41.69-8.25 41.69-9.53 41.69-10.8 43.39-12.38 45.09-13.95 46.59-13.95L46.59-13.95Q47.59-13.95 47.59-12.75L47.59-12.75Q47.59-10.9 45.74-8.8L45.74-8.8Q48.14-8.4 48.14-7.65L48.14-7.65Q48.14-6.65 47.27-6.13 46.39-5.6 45.24-4.25 44.09-2.9 44.09-1.55L44.09-1.55Q44.09-1.25 44.29-1 44.49-0.75 45.14-0.75 45.79-0.75 47.89-1.73 49.99-2.7 51.59-3.7L51.59-3.7 53.19-4.7Q53.24-4.6 53.24-4.3 53.24-4 52.79-3.8L52.79-3.8Q46.04 0.8 43.39 0.8L43.39 0.8Q42.09 0.8 42.09-0.5L42.09-0.5Q42.09-1.55 42.82-2.7 43.54-3.85 44.42-4.6 45.29-5.35 46.02-6.03 46.74-6.7 46.74-6.9 46.74-7.1 46.12-7.15 45.49-7.2 44.49-7.4L44.49-7.4Q41.74-4.45 39.84-3.35ZM42.94-10.3L42.94-10.3Q42.94-9.3 45.14-8.9L45.14-8.9Q46.44-10.5 46.44-11.68 46.44-12.85 45.69-12.85 44.94-12.85 43.94-11.98 42.94-11.1 42.94-10.3ZM60.69-15.25L60.69-15.25Q61.44-15.25 61.44-14.5 61.44-13.75 60.74-12.98 60.04-12.2 59.19-12.2L59.19-12.2Q58.49-12.2 58.49-13.18 58.49-14.15 59.29-14.7 60.09-15.25 60.69-15.25ZM55.99-8.65L55.99-8.65Q56.24-9.05 56.69-9.05 57.14-9.05 57.59-8.6L57.59-8.6Q57.59-8.4 56.94-7.7 56.29-7 54.74-4.58 53.19-2.15 53.19-1.35L53.19-1.35Q53.19-0.85 53.94-0.75L53.94-0.75Q54.94-0.75 57.04-1.73 59.14-2.7 60.74-3.7L60.74-3.7 62.34-4.7Q62.39-4.6 62.39-4.3 62.39-4 61.94-3.8L61.94-3.8Q55.19 0.8 52.54 0.8L52.54 0.8Q51.24 0.8 51.24-0.5 51.24-1.8 52.67-4.13 54.09-6.45 55.99-8.65ZM63.94-5.45L63.94-5.45Q61.54-3.25 60.89-3.25L60.89-3.25Q60.69-3.25 60.69-3.45 60.69-3.65 60.84-3.8L60.84-3.8Q62.04-4.45 63.64-5.9L63.64-5.9Q63.39-6.5 63.39-7.2L63.39-7.2Q63.39-8.9 65.14-10.45 66.89-12 68.09-12L68.09-12Q68.74-12 68.74-11.38 68.74-10.75 66.74-8.35L66.74-8.35Q66.54-8.1 66.29-7.85 66.04-7.6 65.76-7.28 65.49-6.95 65.34-6.8L65.34-6.8Q65.59-6.55 66.24-5.93 66.89-5.3 67.29-4.9L67.29-4.9Q68.39-3.8 68.39-2.15 68.39-0.5 66.34 0.73 64.29 1.95 62.06 1.95 59.84 1.95 59.84 0.63 59.84-0.7 61.89-1.8 63.94-2.9 66.19-3.3L66.19-3.3Q65.89-3.7 65.06-4.35 64.24-5 63.94-5.45ZM66.54-2.7Q64.84-2.5 63.34-1.78 61.84-1.05 61.84-0.08 61.84 0.9 63.21 0.9 64.59 0.9 65.66 0.25 66.74-0.4 66.74-1.2 66.74-2 66.54-2.7L66.54-2.7ZM64.99-7.2L64.99-7.2 66.29-8.6Q67.59-10.15 67.59-10.48 67.59-10.8 67.29-10.8L67.29-10.8Q66.44-10.8 65.54-9.98 64.64-9.15 64.64-8.38 64.64-7.6 64.99-7.2ZM71.84-16.5L71.84-16.5Q75.24-16.5 78.54-16.55L78.54-16.55Q83.89-23.4 85.84-23.4L85.84-23.4Q86.54-23.4 86.54-22.65L86.54-22.65Q86.54-20.25 83.04-16.65L83.04-16.65 86.84-16.7Q90.64-16.85 91.49-16.85 92.34-16.85 92.34-16.65L92.34-16.65Q92.34-15.7 91.04-15.65L91.04-15.65 81.64-15.25Q79.19-12.95 75.59-10.4L75.59-10.4Q71.79-4.15 71.79-1.9L71.79-1.9Q71.79-0.75 73.26-0.75 74.74-0.75 77.94-2.35L77.94-2.35 81.99-4.7Q82.04-4.6 82.04-4.3 82.04-4 81.59-3.8L81.59-3.8Q79.99-2.7 78.09-1.6L78.09-1.6Q74.04 0.45 71.89 0.45L71.89 0.45Q70.89 0.45 70.34 0.05 69.79-0.35 69.74-0.75L69.74-0.75 69.64-1.15Q69.64-2.85 71.94-6.88 74.24-10.9 77.39-15.1L77.39-15.1Q74.99-15 72.84-15 70.69-15 70.69-15.5L70.69-15.5Q70.69-16.45 71.84-16.5ZM84.99-21.6L84.99-21.6Q84.99-21.85 84.79-21.85L84.79-21.85Q83.64-21.85 79.69-16.6L79.69-16.6 82.19-16.6Q84.99-19.65 84.99-21.6ZM80.79-15.2L80.79-15.2Q79.19-15.2 78.64-15.15L78.64-15.15Q78.19-14.5 77.39-13.25 76.59-12 76.29-11.55L76.29-11.55Q78.89-13.45 80.79-15.2Z" opacity="1" transform="matrix(1,0,0,1,0,0)" fill="#ffffff" class="undefined-text-0" data-fill-palette-color="primary" id="text-0"></path></svg></g></svg></g><g transform="matrix(1,0,0,1,81.61879370388313,174.0772634335704)"><svg viewBox="0 0 232.28241259223373 87.03328015586946" height="87.03328015586946" width="232.28241259223373"><g transform="matrix(1,0,0,1,0,0)"><svg width="232.28241259223373" viewBox="3 -37.45000076293945 99.94000244140625 37.45000076293945" height="87.03328015586946" data-palette-color="#0080ff"><path d="M7.65 0L3 0 3-35 18-35Q19.45-35 20.5-33.95 21.55-32.9 21.55-31.4L21.55-31.4 21.55-20.65Q21.55-19.15 20.5-18.1 19.45-17.05 18-17.05L18-17.05 16.95-17.05 21.55 0 16.95 0 12.3-17.05 7.65-17.05 7.65 0ZM7.65-30.35L7.65-21.7 15.15-21.7Q15.85-21.7 16.4-22.23 16.95-22.75 16.95-23.5L16.95-23.5 16.95-28.55Q16.95-29.3 16.4-29.83 15.85-30.35 15.15-30.35L15.15-30.35 7.65-30.35ZM38.15 0L27.7 0Q26.2 0 25.12-1.07 24.05-2.15 24.05-3.65L24.05-3.65 24.05-21.4Q24.05-22.9 25.12-23.95 26.2-25 27.7-25L27.7-25 34.5-25Q36.05-25 37.1-23.95 38.15-22.9 38.15-21.4L38.15-21.4 38.15-13.8Q38.15-12.3 37.1-11.23 36.05-10.15 34.5-10.15L34.5-10.15 28.75-10.15 28.75-6.5Q28.75-5.75 29.27-5.23 29.8-4.7 30.6-4.7L30.6-4.7 37.1-4.7 38.15 0ZM28.75-18.5L28.75-14.85 31.65-14.85Q32.4-14.85 32.92-15.38 33.45-15.9 33.45-16.65L33.45-16.65 33.45-18.5Q33.45-19.25 32.92-19.78 32.4-20.3 31.65-20.3L31.65-20.3 30.6-20.3Q29.8-20.3 29.27-19.78 28.75-19.25 28.75-18.5L28.75-18.5ZM51.6 0L44.75 0Q43.25 0 42.2-1.07 41.15-2.15 41.15-3.65L41.15-3.65 41.15-7.8 45.8-7.8 45.8-6.5Q45.8-5.75 46.35-5.23 46.9-4.7 47.65-4.7L47.65-4.7 48.7-4.7Q49.45-4.7 49.97-5.23 50.5-5.75 50.5-6.5L50.5-6.5 50.5-8.35Q50.5-9.1 49.97-9.63 49.45-10.15 48.7-10.15L48.7-10.15 44.75-10.15Q43.25-10.15 42.2-11.23 41.15-12.3 41.15-13.8L41.15-13.8 41.15-21.35Q41.15-22.85 42.2-23.93 43.25-25 44.75-25L44.75-25 51.6-25Q53.1-25 54.15-23.93 55.2-22.85 55.2-21.35L55.2-21.35 55.2-17.2 50.5-17.2 50.5-18.5Q50.5-19.25 49.97-19.78 49.45-20.3 48.7-20.3L48.7-20.3 47.65-20.3Q46.9-20.3 46.35-19.78 45.8-19.25 45.8-18.5L45.8-18.5 45.8-16.65Q45.8-15.9 46.35-15.38 46.9-14.85 47.65-14.85L47.65-14.85 51.6-14.85Q53.1-14.85 54.15-13.78 55.2-12.7 55.2-11.2L55.2-11.2 55.2-3.45Q55.15-2.05 54.1-1.03 53.05 0 51.6 0L51.6 0ZM69.04 0L62.24 0Q60.69 0 59.64-1.07 58.59-2.15 58.59-3.65L58.59-3.65 58.59-21.35Q58.59-22.85 59.64-23.93 60.69-25 62.24-25L62.24-25 69.04-25Q70.54-25 71.59-23.93 72.64-22.85 72.64-21.35L72.64-21.35 72.64-3.65Q72.64-2.15 71.59-1.07 70.54 0 69.04 0L69.04 0ZM65.09-4.7L65.09-4.7 66.14-4.7Q66.89-4.7 67.44-5.23 67.99-5.75 67.99-6.5L67.99-6.5 67.99-18.5Q67.99-19.25 67.44-19.78 66.89-20.3 66.14-20.3L66.14-20.3 65.09-20.3Q64.34-20.3 63.82-19.78 63.29-19.25 63.29-18.5L63.29-18.5 63.29-6.5Q63.29-5.75 63.82-5.23 64.34-4.7 65.09-4.7ZM79.89 0L75.19 0 75.19-25 85.64-25Q87.14-25 88.22-23.93 89.29-22.85 89.29-21.35L89.29-21.35 89.29-15.9 84.59-16.95 84.59-18.45Q84.59-19.2 84.07-19.75 83.54-20.3 82.79-20.3L82.79-20.3 79.89-20.3 79.89 0ZM96.99 0L92.29 0 92.29-36.4 96.99-37.45 96.99-25 102.94-25 101.84-20.3 96.99-20.3 96.99 0Z" opacity="1" transform="matrix(1,0,0,1,0,0)" fill="#ffffff" class="undefined-text-1" data-fill-palette-color="secondary" id="text-1"></path></svg></g></svg></g></svg></g></svg></g><g transform="matrix(1,0,0,1,76.53311999999997,0)"><svg viewBox="0 0 244.43135999999998 262.22987244730825" height="262.22987244730825" width="244.43135999999998"><g><svg xmlns="http://www.w3.org/2000/svg" xmlns:xlink="http://www.w3.org/1999/xlink" version="1.1" x="8" y="0" viewBox="10.100000381469727 5.199999809265137 78.4000015258789 90" enable-background="new 0 0 100 100" xml:space="preserve" height="262.22987244730825" width="228.43135999999998" class="icon-icon-0" data-fill-palette-color="accent" id="icon-0"><polygon fill-rule="evenodd" clip-rule="evenodd" fill="#ffffff" points="88.5,28.2 68.4,59.9 68.5,22.3 " data-fill-palette-color="accent"></polygon><polygon fill-rule="evenodd" clip-rule="evenodd" fill="#ffffff" points="49.8,5.2 67.2,38.5 34.7,19.6 " data-fill-palette-color="accent"></polygon><polygon fill-rule="evenodd" clip-rule="evenodd" fill="#ffffff" points="67.8,38.3 67.8,22.3 60.8,24.5 " data-fill-palette-color="accent"></polygon><polygon fill-rule="evenodd" clip-rule="evenodd" fill="#ffffff" points="88.2,73.2 50.6,71.7 83.2,52.9 " data-fill-palette-color="accent"></polygon><polygon fill-rule="evenodd" clip-rule="evenodd" fill="#ffffff" points="69.1,60.3 82.8,52.3 77.4,47.4 " data-fill-palette-color="accent"></polygon><polygon fill-rule="evenodd" clip-rule="evenodd" fill="#ffffff" points="48.7,95.2 31.5,61.9 63.9,80.9 " data-fill-palette-color="accent"></polygon><polygon fill-rule="evenodd" clip-rule="evenodd" fill="#ffffff" points="50.5,72.2 64.2,80.2 65.8,73.1 " data-fill-palette-color="accent"></polygon><polygon fill-rule="evenodd" clip-rule="evenodd" fill="#ffffff" points="10.1,72 30.5,40.4 30.1,78 " data-fill-palette-color="accent"></polygon><polygon fill-rule="evenodd" clip-rule="evenodd" fill="#ffffff" points="30.9,62.1 30.8,78 37.8,75.8 " data-fill-palette-color="accent"></polygon><polygon fill-rule="evenodd" clip-rule="evenodd" fill="#ffffff" points="11,27 48.5,28.9 15.8,47.3 " data-fill-palette-color="accent"></polygon><polygon fill-rule="evenodd" clip-rule="evenodd" fill="#ffffff" points="30,40.1 16.1,47.9 21.5,52.9 " data-fill-palette-color="accent"></polygon><polygon fill-rule="evenodd" clip-rule="evenodd" fill="#ffffff" points="48.2,28.3 34.5,20.2 32.9,27.4 " data-fill-palette-color="accent"></polygon></svg></g></svg></g><g></g></svg></g></svg><rect width="163.08024546635926" height="247.2" fill="none" stroke="none" visibility="hidden"></rect></g></svg></g></svg>